<svg id="logo-white" xmlns="http://www.w3.org/2000/svg" width="517.732" height="195.948" viewBox="0 0 517.732 195.948">
  <g id="Group_3" data-name="Group 3">
    <path id="Path_16" data-name="Path 16" d="M343.345,71.089a2.623,2.623,0,0,0-2.508-2.459h-4.675a2.543,2.543,0,0,0-2.362,2.3V91.664c0,1.3.694,2.033,2.423,2.143,1.814.049,2.776-.024,4.517-.024.9,0,2.63-.621,2.593-2.118C343.333,85.528,343.345,71.881,343.345,71.089Zm-6.976,18.457h0l-.012-.012Zm-.036.012h0Zm1.717-16.679h0v0Zm0,7.146V79.38l.012-.475v1.7Zm1.035,9.533h-1.047v-.049h1.023Zm.012-16.314V89.509h-1.023V72.891h.012l.134.012h.876Zm0-2.179v.024h0v-.024Zm1.473,18.469h0Z" transform="translate(72.584 14.924)" fill="#fff"/>
    <path id="Path_17" data-name="Path 17" d="M505.9,22.876l-.073.037-.414.28-.67.45-.913.6-1.132.743-1.327.877-1.522,1-1.68,1.12-1.85,1.217-1.984,1.3-2.106,1.364-2.216,1.449-2.289,1.5-2.374,1.546-2.435,1.583-2.471,1.607-2.471,1.595-2.508,1.607-2.471,1.595L470.52,45.91l-2.411,1.522-2.374,1.5-2.277,1.424-2.191,1.364L459.185,53l-1.96,1.181-1.8,1.084-1.644.962-1.437.828-1.254.694-1,.511-.694.317-.085.037-.219.11-.122.061-.256.122-.329.17-.365.219-.487.219-.536.268-.609.292-.657.317-.706.341-.743.353-.779.377-.8.39-.8.4-.84.4-.852.414-.852.414-.852.414-.852.4-.84.4-.816.377-.791.377-.767.365-.718.353-.694.329-.645.3-.6.28-.523.256-.475.219-.39.17-.317.146-.219.1-.1.037-1.7.718-.012-.012-.231-.183-.231-.183-.231-.158-.256-.158-.256-.134-.256-.122-.28-.11-.256-.11-.28-.1-.292-.073-.28-.073-.28-.049-.292-.024-.3-.024h-.268V67.2H398.738l-.816.012h-.268l-.28.024-.268.024-.256.049-.28.049-.256.073-.268.073-.268.11-.256.11-.256.122-.256.134-.231.134-.244.158-.219.158V67.154l-3.579-.584-1.266-.207-1.254-.207-1.278-.207-1.278-.219-1.278-.219-1.266-.219-1.29-.219-1.29-.219-1.278-.231-1.3-.231-1.3-.231-1.315-.231-1.315-.231-1.485-.231-1.327-.243-1.327-.243-1.339-.243-1.339-.243-1.327-.243L364.529,62l-1.351-.243-1.351-.256-1.364-.256-1.364-.256-1.351-.256-1.364-.256-1.376-.256-1.376-.256-1.376-.256-1.388-.256-1.388-.268-1.388-.268-5.04-.962V72.329l-.207-.6-.256-.682-.28-.694-.268-.694-.292-.682-.3-.67-.292-.67-.317-.657-.341-.645-.329-.621-.353-.621-.341-.609-.377-.6-.365-.584-.4-.56-.39-.548-.329-.414.134.158-.231-.28-.012-.012-.377-.463-.414-.438-.414-.426-.426-.426-.438-.426-.45-.4-.45-.4-.475-.4-.475-.39-.475-.39-.5-.365-.5-.377-.5-.353-.511-.353-.511-.341-.511-.341-.536-.329-.523-.317-.523-.317-.523-.3-.536-.292-.523-.28-.536-.268-.523-.268-.523-.243-.511-.243-.523-.219-.523-.207-.511-.195-.523-.183-.511-.17-.511-.146-.122-.037-.974-.219-1-.207-1-.195-1.023-.183-1.023-.158-1.035-.134-1.047-.134L313.444,50l-1.059-.11-1.071-.085-1.084-.073-1.071-.061-1.1-.049-1.084-.049-1.084-.037-1.071-.024-1.084-.024-1.071-.012-1.084-.012h-4.151l-1.023.012-1,.012-.986.012-.974.012-.95.012-.937.012-.9.012h-.877l-.877-.012h-1.79V35.878l-.012-.84.012-.828V32.555l-.012-.828.012-.828-.012-.816.012-.816V25.116l-.012-.816v-.816l.012-.816V17.775l-.012-.816.012-.828-.012-.828.012-.828V12.82l-.012-.828.012-.84V0l-7.268,7.317-.523.524-.548.548-.572.572-.621.609-.645.633-.67.657-.682.682-.706.694-.706.694-.73.73-.743.743-.755.743-.767.755-.767.755-.767.755-.767.755-.755.743-.755.743-.743.73-.73.718-.706.694-.694.682-.609.657-.645.633-.621.609-.6.584-.56.548-.536.524-.487.487-.45.45-.414.4-.365.365L257.941,29v.195l-4.638,4.2-.158.146-.231.207-.292.268-.353.3-.414.39-.463.414-.511.45-.56.5-.6.536-.633.572-.657.6-.682.621-.706.633-.73.657-.743.67-.743.67-.755.682-.755.682-.743.67-.743.67-.73.657-.706.633-.682.621-.657.6-.633.572-.6.536-.548.5-.511.463-.463.39-.414.353-.365.317-.28.268L233.8,50.914v7.207l.012,1.327V62.1l-.012,1.327V74.045l.012,1.327L233.8,76.7l-.4-.828-.852-1.79-.852-1.79-.84-1.765-.828-1.741-.816-1.692-.767-1.644-.755-1.571-.706-1.485-.67-1.388-.609-1.278-.548-1.157-.487-1.01-.414-.864L223.925,56l-.243-.511-.158-.317-.073-.11-1.437-2.983-3.226.657-.657.134-.645.134-.633.134-.657.134-.657.158-.657.146-.645.146-.657.146-.645.146-.645.146-.645.146-.645.146-.645.146-.621.146-.645.146-.645.146-.621.146-.621.122-.621.134-.609.134-.609.134-.609.122-.584.11-.6.122-.572.11-.572.085-.56.1-.56.1-.548.073-.536.085-.523.061-.511.073-1.534.17v-.268l-5.028.913-.438.085-.463.085-.438.085-.463.085-.45.085-.451.061-.45.085-.475.085-.45.11-.463.1-.475.1-.463.1-.463.1-.463.1-.475.1-.463.1-.463.1-.463.1-.463.1-.463.1-.463.1-.463.1-.463.1-.463.1-.463.1-.463.1-.463.1-.463.1-.45.1-.463.1-.463.1-.463.1-3.409.694v.024H170.65l-.657-.012-.718-.012-.718-.024-.755-.024-.767-.024-.8-.037-.816-.037-.828-.037-.852-.037-.84-.037-.864-.024-.864-.024-.889-.024-.889-.012-.889-.012h-1.777l-.9.012-.9.024-.9.037-.9.049-.889.061-.889.1-.889.11-.864.11-.877.146-.864.17-.864.195-.852.219-.828.231-.828.292-.207.073-.195.073-.219.085-.195.085-.207.085-.207.085-.207.1-.231.061-.207.1-.219.1-.219.1-.219.11-.219.11-.219.11-.219.11-.207.11-.207.11-.231.134-.207.122-.207.122-.207.134-.219.122-.207.134-.207.134-.207.134-.195.134-.195.146-.207.134-.195.17-.195.146-.207.17-.012.012-.073.049-.158.122-.195.146-.231.195-.268.183-.3.231-.329.243-.353.268-.365.28-.39.292-.39.3-.414.317-.426.317-.426.329-.438.3-.414.329-.426.317-.426.317-.4.292-.4.3-.377.292-.377.256-.341.256-.317.219-.268.195-.243.158-.17.122h0l-.024.012-.024.012-.061.012-.037-.012-.037.012-.037.012-.049.012H128.6l-.073.012-.061.012-2.691.39-2.7.39-2.715.39-2.751.4-2.751.4-2.764.4-2.764.414-2.776.414-2.788.414-2.788.414-2.8.414-2.8.414-2.8.414-2.8.414-2.8.414-2.8.414-2.788.414-2.8.4-2.788.4-2.788.4-2.776.4-2.751.39-2.764.39-2.751.377-2.727.377-2.727.365-2.691.365-2.691.353-2.666.353-2.666.341-2.63.317-2.618.329L0,90.347l40.7,3.506.694.049,1.035.061,1.424.085,1.765.1,2.118.11,2.411.134,2.691.146,2.934.158,3.165.158,3.36.17,3.555.183,3.677.183,3.8.195,3.884.195,3.945.195,3.981.195,3.993.195,3.969.195,3.92.195,3.847.183,3.75.183,3.616.17,3.482.158L115,97.6l3.068.146,2.837.122,2.569.11,2.3.1,1.96.085,1.631.061,1.278.037.9.024h.134l.085.012.085.012.1.012.1.012.11.012.122.012.11.012.122.012h.122l.134.012.122.012.146.012.122.012.146.012.134.012.134.012.146.012.085.012V102.9l-.012.377v.377l.012.377V107h-.536v-2.788H127.1l-.158.012-.158-.012h-7.11v6.16l.012.158-.012.158v2.849l.012-.037v.5l.037.487.073.5.085.463.11.45.122.45.134.414.146.414.183.4.17.4.183.365.207.377.195.365.207.341.207.341.231.341.219.329.231.3.231.317.256.292.231.292.243.28.256.28.256.256.243.256.256.256.256.243.268.231.268.219.268.231.28.207.292.207.183.134.207.122.207.134.219.134.219.146.256.134.268.134.268.158.28.146.3.146.3.17.329.158.329.158.353.158.341.158.365.17.377.158.39.158.39.146.4.146.414.158.414.146.426.134.438.146.45.122.438.122.463.11.463.11.475.11.475.085.475.073.5.061.28.037h.645l.426-.012.426.012h.852l.426-.012.426.012h.852l.426-.012.426.012h.426l.426-.012.426.012h.852l.426-.012.426.012h.426l.426-.012.426.012h1.278l.426-.012.426.012.426-.012.426.012h.852l.414-.012.414.012h3.847l.061.1.414.511.414.487.45.463.475.438.475.4.511.377.511.353.536.341.548.3.56.292.572.268.572.231.6.219.6.207.609.195.609.158.621.146.633.11.657.122.645.085.645.073.657.037.657.024h.645l-.037.012h18.371l.633-.012.633.012.548-.012h.268l.463-.012.438-.049.426-.073.39-.11.377-.122.341-.122.329-.134.329-.146.317-.17.292-.17.292-.183.28-.17.292-.219.268-.207.256-.219.268-.219.243-.231.17-.17v4.066l3.129.864.621.17.633.17.609.183.633.17.609.158.621.158.609.158.6.158.621.158.6.158.6.158.609.158.6.17.6.146.609.146.6.146.6.146.609.146.6.146.6.146.609.146.6.146.6.146.6.146.621.146.6.146.609.158.609.146.621.146.609.146.609.146.609.146,4.918,1.157.292-5.065v-.243l.012-.073-.012.061v-.012l.012-.073v-.037l-.012.037V137.5l.012-.061-.012-.061v-.012l.012.037v-.122l-.012-.012h.012v-5.016l-.012,3.908V118.1l.377,1.157.572,1.729.56,1.7.548,1.68.536,1.644.523,1.595.511,1.546.487,1.485.463,1.437.438,1.351.414,1.266.39,1.181.377,1.084.329,1,.292.877.256.779.353,1.059.828.743.45.4.487.45.523.487.56.523.609.56.621.609.67.633.67.645.706.682.718.694.743.718.755.743.767.755.767.743.791.767.791.779.791.779.791.779.791.779.767.755.767.767.755.755.743.743.73.73.706.706.67.67.67.67.633.645.609.609.572.584.523.548.5.487,4.821,4.882v.146l1.071,1.205.28.317.329.341.39.4.45.45.5.5.572.572.621.621.682.645.706.694.755.73.8.779.816.791.84.8.852.828.864.828.877.84.877.84.877.84.877.84.852.816.828.791.8.767.779.743.743.706.694.67.657.621.6.572.548.511.475.45.414.39.341.317.256.243,7.2,6.842v-9.874l.012-4.565V146.922h1.79l1.193-.012h14.889l-.073.012,1.595-.037,1.631-.073,1.656-.134,1.644-.158,1.668-.231L314.65,146l1.668-.329,1.668-.39,1.656-.438,1.656-.511,1.619-.56,1.619-.633,1.607-.67,1.558-.755,1.534-.816,1.5-.889,1.461-.962,1.412-1.023,1.376-1.108,1.3-1.169,1.242-1.266,1.193-1.327,1.084-1.412,1.023-1.473.913-1.571.828-1.644.329-.779v6.16l4.772-.6,1.315-.158,1.315-.17,1.315-.17,1.327-.17,1.327-.17,1.351-.17,1.339-.17,1.351-.183,1.351-.183,1.351-.183,1.351-.183,1.376-.183,1.364-.183,1.364-.183,1.364-.183,1.351-.183,1.351-.183,1.376-.183,1.351-.183,1.351-.183,1.339-.195,1.339-.195,1.351-.195,1.327-.195,1.327-.195,1.315-.195,1.3-.195,1.3-.195,1.3-.183,1.278-.183,1.266-.183,1.266-.183,3.64-.548V124.24l.073.061.317.183.3.17.292.134.292.11.268.073.28.1.243.061.256.061.243.037.231.037.231.037.231.024.195.012h26.261l.061-.012h.438l.231-.024.231-.024.219-.024.256-.049.231-.049.256-.073.243-.073.268-.1.256-.1.256-.122.256-.158.268-.146.243-.183.243-.195.243-.195.243-.219.219-.243.061-.073,1.035.511.414.207.475.219.475.243.523.256.56.28.584.292.621.3.645.317.657.329.694.353.718.341.73.377.767.39.779.39.779.39.816.414.8.426.816.438.84.426.84.45.84.45.864.438.852.463.852.45.852.475.852.463.84.487.84.463.828.475.8.487.816.475.8.475-.061-.037.767.475.9.56,1.023.633,1.132.706,1.23.767,1.327.828,1.412.889,1.5.937,1.57.974,1.631,1.01,1.68,1.047,1.729,1.071,1.765,1.1,1.79,1.108,1.8,1.12,1.814,1.132,1.814,1.132,1.826,1.12,1.8,1.108,1.777,1.1L485,156.077l1.7,1.047,1.644,1.023,1.595,1,1.546.937,1.449.889,1.364.828,1.29.779,1.169.73,1.084.645.962.584.84.5,8.559,5-2.277-9.642-.28-1.169-.292-1.242-.3-1.315-.317-1.351-.329-1.412-.341-1.461-.353-1.5-.39-1.534-.377-1.571-.39-1.607-.39-1.631-.4-1.668-.4-1.668-.4-1.68-.414-1.68-.414-1.692-.414-1.68-.414-1.68-.414-1.68-.4-1.656-.4-1.631-.4-1.607-.39-1.595-.39-1.546-.377-1.51-.377-1.473-.365-1.449-.365-1.376L495.076,116l-.329-1.266-.317-1.217-.147-1.035v-.037l-.037-.122-.207-.621-.219-.609-.207-.609-.231-.6-.243-.584-.256-.584-.28-.56-.268-.56-.28-.536-.28-.536-.3-.524-.292-.511-.317-.5-.3-.5-.329-.487-.317-.475-.341-.45-.329-.463-.341-.438-.353-.438-.353-.414-.353-.4-.353-.4-.341-.39-.353-.377-.353-.365-.365-.353-.353-.353-.353-.341-.353-.317-.353-.317-.353-.3-.024-.024-.219-.158-.584-.414-.621-.438-.67-.438-.718-.487-.755-.487-.779-.5-.816-.5-.864-.536-.877-.548-.718-.438.134.024,1,.17.925.158.877.146.8.134.706.122.645.11.536.1.414.061,3.75.694,1.1-3.64.353-1.157.426-1.29.475-1.412.548-1.522.572-1.607.633-1.717.657-1.777.718-1.875.73-1.936.779-2.021.816-2.057.84-2.106.84-2.155.877-2.179.889-2.216.9-2.228.913-2.252.925-2.264.913-2.264.925-2.24.925-2.252.913-2.228.913-2.2.9-2.167.877-2.131.864-2.082.84-2.033.816-1.972.791-1.911.755-1.838.718-1.777.706-1.668,5.43-13.319ZM174.46,109.656Zm-45.216-36.84Zm-.268.1h0l-.037.024Zm-.049.024.024-.012-.024.012-.049.037Zm4.845,24.179h0v-.049h0v.049Zm-.523,11.541.012.037v.024h-.012v-.061Zm-1.838-1.631.024.012H131.4l-.012-.012ZM155.76,87.583l-.012-.073.012.073Zm-2.727-1.863a5.008,5.008,0,0,0-.877.743,1.913,1.913,0,0,0-.621,1.449v36.657h-13.7a25.365,25.365,0,0,1-9.472-3.616c-1.8-1.242-4.529-4.6-4.5-7.3V108.5h5.15c0,2.24,1.01,2.776,2.435,2.788h4.87a1.715,1.715,0,0,0,1.741-1.948v-12.1a2.917,2.917,0,0,0-.134-1.047,2.425,2.425,0,0,0-2.3-1.753c-1.144-.183-3.287-.377-3.981-.4-6.72-.11-86.463-4.066-90.529-4.419C68.956,86.208,100.5,81.2,129.1,77.125a5.761,5.761,0,0,0,1.765-.39c.645-.183,9.326-6.83,9.874-7.232a18.942,18.942,0,0,1,5.2-2.885c6.879-2.508,18.164-1.12,25.384-1.12v8.06c0,2.131.195,3.969.195,6.087a37.95,37.95,0,0,0-11.237,2.167A34.221,34.221,0,0,0,153.033,85.721ZM133.81,97.359h0l.012.024h0l-.012-.024Zm1.315,1.29Zm.037,0h.024v0ZM193.4,127.041c-.012,1.619-2.459,3.591-3.969,3.482H169.006c-5.6.061-10.969-2.788-11.225-6.952V91.443c3.348-3.08,10.312-4.772,13.489-5.43v25.944c.049,1.534,2.861,2.264,4.845,2.3h2.605V64.732c4.882-1,10.032-2.143,14.682-2.995Zm21.269,10.567h0v0Zm0,.024h0v0Zm.012.012h0v-.012h0v.012Zm0-.073Zm0,.024Zm0,.012Zm0-.037ZM256.139,159.8c-5.162-5.223-17.13-17.117-21.841-21.354-2.532-7.463-11.724-35.83-15.376-46.567.049,15.194,0,30.4,0,45.593v.28c-6.574-1.534-12.649-3.031-19.26-4.87V60.958c6-.682,13.27-2.715,19.966-4.078.037.073,18.079,37.9,18.432,38.447v-42.5c2.861-2.532,16.764-15.084,18.079-16.277Zm26.784,26.455c-2.325-2.216-19.041-18.091-20.733-20V41.564h20.733Zm0-149.6c-6.891,0-13.769-.061-20.733-.061V30.765c3.677-3.616,15.4-15.084,20.733-20.453Zm58.17,79.012c-.621,19.394-20.453,27.088-36.122,27.088-.073,0-2.885.085-16,.085V53.738c9.192,0,22.438-.621,31.6,1.692a32.5,32.5,0,0,1,13.635,8.948c3.543,4.31,6.623,13.112,6.732,18.237.268,4.078.3,16.679.3,25.323C341.227,109.01,341.153,115.025,341.093,115.67Zm48.808,6.221c-13.392,2-28.72,4.1-42.574,5.844V63.113c14.865,2.824,29.1,5.442,42.574,7.646,0,4.371-.012,10.068-.012,13.489-9.18-1.473-18.4-2.946-28.854-4.663a1.325,1.325,0,0,0-1.388,1.388v5.357c-.049,1.461.329,3.725,1.522,3.579A13.133,13.133,0,0,0,364,89.3c1.084-.377,6.233-2.289,7.061-2.654v17.848c-2.508-1.132-7.426-2.8-8.108-3.031a3.8,3.8,0,0,0-1.424-.256,1.708,1.708,0,0,0-1.595,1.181v7.159c.073,1.169.67,1.583,1.388,1.68,7.39-.268,19.82-3.08,28.61-4.87C389.924,111.324,389.9,116.875,389.9,121.891ZM363.968,84.8l-.073.024h0v-.45l.317.049.536.085h0l-.268.1-.256.1Zm.012,2.642h0l-.012-.037v-.012l.012.024Zm.183,18.98h0l.134.037.28.085.3.11.1.037-.329.037-.463.049v-.146Zm-2.691-.95Zm-.012,0Zm0,0h0Zm-.012-.012h0Zm30.448-16.4v12.552l-2.8.572-.852.17-.852.17-.877.183-.9.183-.9.183-.913.195-.913.195-.937.195-.95.195-.95.195-.95.195-.962.183-.95.195-.95.195-.913.17v-.511l-.012-.548.012-.548v-2.691l-.012-.56.012-.56v-2.8l-.012-.56v-.56l.012-.56V86.22l.852.134.889.146.889.146.877.146.877.146.877.146.877.134.864.134.864.134.864.134.864.134.864.134.864.134.864.134.864.134.864.134,2.678.426v.207Zm33.821,30.534c-.073,1.108-.779,1.583-1.875,1.595h-26.09c-1.461-.122-1.571-.633-1.595-1.595V73.059a1.548,1.548,0,0,1,1.595-1.595h26.3a1.617,1.617,0,0,1,1.668,1.595Zm57.756-30.314c-4.188-.767-26.93-4.407-28.464-4.675v.694a240.356,240.356,0,0,1,26.553,15.364,28.035,28.035,0,0,1,8.62,12.917c3.129,11.675,8.9,35.744,11.761,47.894-8.035-4.687-39.092-24.142-46.567-28.793-8.644-5.2-19.65-10.519-23.886-12.6V105.614c8.985,2.52,22.778,6.4,32.141,8.766l-.8-.523c-5.211-3.421-28.987-13.976-31.057-14.743,0-9.533-.353-17.653-.353-27.186,1.23-.524,18.177-8.644,19.686-9.435,8.291-3.567,57.1-36.049,57.22-36.134C501.248,43.719,487.235,76.809,483.473,89.276Z" fill="#fff"/>
  </g>
  <path id="Path_18" data-name="Path 18" d="M265.712,108.795a19.1,19.1,0,0,0,3.616-10.835V71.735c-.11-2.447-2.179-6.6-3.786-8.279a13.009,13.009,0,0,0-4.931-3.945c-2.7-.828-5.284-.852-8.741-.852v54.883h4.176A12.98,12.98,0,0,0,265.712,108.795Zm-.633-36.986.012.073v.037l-.012-.11Zm-8.96,28.013.012-1.717v-5.15l-.012-1.717.012-1.717V87.806l-.012-1.717.012-1.717V82.656l-.012-1.717.012-1.717v-5.15l-.012-1.717.012-1.717V68.923l-.012-1.717.012-1.717V62.982l.073.012.219.024.207.012.231.024.207.024.207.012.195.037.207.024.183.037.207.024.183.037.183.049.207.037.183.049.183.049.183.049.049.012h0l.11.049.11.061.122.061.122.085.11.049.11.085.122.073.1.073.134.085.11.085.11.085.122.11.11.085.11.085.11.11.122.085.1.11.11.11.1.1.085.085.1.1.085.1.1.1.073.1.073.11.085.085.061.085.073.073.073.085.061.085.11.134.146.146.049.049.061.073.085.11.085.122.11.134.11.158.11.17.11.183.122.183.122.195.122.219.122.207.122.231.11.219.122.243.11.243.1.231.11.231.1.231.085.231.1.231.073.231.061.207.073.207.049.183.061.183.037.17.024.146.037.122.012.073V92.943l.012.816-.012.816.012.816v.816l-.012.816v.816l.012-.012v.243l-.012.146-.012.183-.024.183-.012.195-.024.231-.037.231-.024.243-.049.268-.036.256-.049.268-.049.268-.061.292-.073.292-.073.292-.085.317-.1.3-.085.3-.073.4-.11.292-.122.317-.134.292-.122.292-.158.292-.134.292-.158.292-.158.268-.17.268-.17.268-.183.256-.195.256-.122.17-.134.146-.134.146-.146.158-.158.146-.158.146-.17.158-.183.146-.17.146-.195.134-.195.134-.195.122-.195.134-.219.11-.207.122-.207.11-.219.11-.219.1-.231.11-.231.085-.219.085-.219.085-.219.073-.231.061-.231.049-.231.037-.219.049-.219.037-.219.024-.219.012-.207.024h-.134v-2.618l-.012-1.717.012-1.717v-1.717Z" transform="translate(54.769 12.756)" fill="#fff"/>
</svg>
